<svg width="21" height="20" viewBox="0 0 21 20" fill="none" xmlns="http://www.w3.org/2000/svg">
<path fill-rule="evenodd" clip-rule="evenodd" d="M4.83335 3.95898C4.55709 3.95898 4.29213 4.06873 4.09678 4.26408C3.90544 4.45543 3.79622 4.71355 3.79183 4.98367C3.98475 8.07414 5.29943 10.9881 7.48932 13.178C9.6792 15.3679 12.5932 16.6826 15.6837 16.8755C15.9538 16.8711 16.2119 16.7619 16.4033 16.5706C16.5986 16.3752 16.7084 16.1103 16.7084 15.834V12.9238L13.4288 11.612L12.4526 13.2389C12.2853 13.5178 11.932 13.6217 11.6402 13.4779C9.70725 12.5245 8.1428 10.9601 7.18948 9.0271C7.04561 8.73537 7.14954 8.38207 7.42846 8.21472L9.05538 7.23857L7.74354 3.95898H4.83335ZM3.2129 3.3802C3.64267 2.95043 4.22557 2.70898 4.83335 2.70898H8.16669C8.42225 2.70898 8.65207 2.86458 8.74698 3.10187L10.4137 7.26853C10.5276 7.55335 10.418 7.87876 10.1549 8.03658L8.58176 8.98047C9.32843 10.2683 10.399 11.3389 11.6869 12.0856L12.6308 10.5124C12.7886 10.2494 13.114 10.1398 13.3988 10.2537L17.5655 11.9204C17.8028 12.0153 17.9584 12.2451 17.9584 12.5007V15.834C17.9584 16.4418 17.7169 17.0247 17.2871 17.4544C16.8574 17.8842 16.2745 18.1257 15.6667 18.1257C15.654 18.1257 15.6414 18.1253 15.6288 18.1245C12.2258 17.9177 9.01615 16.4726 6.60544 14.0619C4.19472 11.6512 2.74964 8.44155 2.54284 5.03856C2.54207 5.02594 2.54169 5.0133 2.54169 5.00065C2.54169 4.39286 2.78313 3.80997 3.2129 3.3802Z" fill="#27A376"/>
</svg>
