<svg width="21" height="20" viewBox="0 0 21 20" fill="none" xmlns="http://www.w3.org/2000/svg">
<path d="M10.3333 1.25C5.50131 1.25 1.58334 5.16797 1.58334 10C1.58334 14.832 5.50131 18.75 10.3333 18.75C15.1654 18.75 19.0833 14.832 19.0833 10C19.0833 5.16797 15.1654 1.25 10.3333 1.25ZM10.3333 17.2656C6.32162 17.2656 3.06772 14.0117 3.06772 10C3.06772 5.98828 6.32162 2.73438 10.3333 2.73438C14.3451 2.73438 17.599 5.98828 17.599 10C17.599 14.0117 14.3451 17.2656 10.3333 17.2656Z" fill="#27A376"/>
<path d="M12.513 6.18555C11.9271 5.67188 11.1537 5.39062 10.3333 5.39062C9.51303 5.39062 8.73959 5.67383 8.15366 6.18555C7.54428 6.71875 7.20834 7.43555 7.20834 8.20312V8.35156C7.20834 8.4375 7.27866 8.50781 7.36459 8.50781H8.30209C8.38803 8.50781 8.45834 8.4375 8.45834 8.35156V8.20312C8.45834 7.3418 9.30014 6.64062 10.3333 6.64062C11.3665 6.64062 12.2083 7.3418 12.2083 8.20312C12.2083 8.81055 11.7787 9.36719 11.1126 9.62305C10.6986 9.78125 10.347 10.0586 10.0951 10.4219C9.8392 10.793 9.70639 11.2383 9.70639 11.6895V12.1094C9.70639 12.1953 9.7767 12.2656 9.86264 12.2656H10.8001C10.8861 12.2656 10.9564 12.1953 10.9564 12.1094V11.666C10.9574 11.4764 11.0155 11.2915 11.1232 11.1354C11.2308 10.9793 11.383 10.8593 11.5599 10.791C12.7122 10.3477 13.4564 9.33203 13.4564 8.20312C13.4583 7.43555 13.1224 6.71875 12.513 6.18555ZM9.55209 14.2969C9.55209 14.5041 9.6344 14.7028 9.78092 14.8493C9.92743 14.9958 10.1261 15.0781 10.3333 15.0781C10.5405 15.0781 10.7393 14.9958 10.8858 14.8493C11.0323 14.7028 11.1146 14.5041 11.1146 14.2969C11.1146 14.0897 11.0323 13.891 10.8858 13.7444C10.7393 13.5979 10.5405 13.5156 10.3333 13.5156C10.1261 13.5156 9.92743 13.5979 9.78092 13.7444C9.6344 13.891 9.55209 14.0897 9.55209 14.2969Z" fill="#27A376"/>
</svg>
