<svg width="20" height="20" viewBox="0 0 20 20" fill="none" xmlns="http://www.w3.org/2000/svg">
<path fill-rule="evenodd" clip-rule="evenodd" d="M9.8059 2.94043C6.0142 2.94043 2.94043 6.0142 2.94043 9.8059C2.94043 13.5976 6.0142 16.6714 9.8059 16.6714C13.5976 16.6714 16.6714 13.5976 16.6714 9.8059C16.6714 6.0142 13.5976 2.94043 9.8059 2.94043ZM1.69043 9.8059C1.69043 5.32385 5.32385 1.69043 9.8059 1.69043C14.2879 1.69043 17.9214 5.32385 17.9214 9.8059C17.9214 14.2879 14.2879 17.9214 9.8059 17.9214C5.32385 17.9214 1.69043 14.2879 1.69043 9.8059Z" fill="white"/>
<path fill-rule="evenodd" clip-rule="evenodd" d="M14.5731 14.9633C14.8169 14.7189 15.2126 14.7184 15.457 14.9622L18.3937 17.8912C18.6381 18.135 18.6386 18.5307 18.3949 18.7751C18.1511 19.0195 17.7554 19.02 17.511 18.7763L14.5743 15.8472C14.3299 15.6034 14.3294 15.2077 14.5731 14.9633Z" fill="white"/>
</svg>
