<svg width="21" height="20" viewBox="0 0 21 20" fill="none" xmlns="http://www.w3.org/2000/svg">
<path fill-rule="evenodd" clip-rule="evenodd" d="M10.9275 1.08861C11.161 0.991871 11.4299 1.04534 11.6086 1.22409L19.1086 8.72409C19.228 8.84349 19.294 9.00612 19.2916 9.17496C19.2892 9.3438 19.2186 9.50448 19.0958 9.62042L11.5958 16.7038C11.4144 16.8751 11.1484 16.9221 10.9193 16.8233C10.6901 16.7245 10.5417 16.4989 10.5417 16.2494V12.3176C8.19383 12.5188 6.46885 13.8342 5.28482 15.2004C4.64289 15.9411 4.17183 16.6843 3.86146 17.243C3.70665 17.5217 3.59282 17.7526 3.51852 17.9118C3.4814 17.9913 3.45421 18.0528 3.43678 18.0933C3.42807 18.1135 3.4218 18.1284 3.41795 18.1377L3.41399 18.1473L3.41364 18.1482C3.30225 18.4261 3.00921 18.5864 2.71515 18.5298C2.42095 18.4731 2.20834 18.2156 2.20834 17.916C2.20834 14.3363 2.73034 11.2728 4.13009 9.08916C5.47191 6.99591 7.57033 5.78643 10.5417 5.63954V1.66603C10.5417 1.41324 10.694 1.18535 10.9275 1.08861ZM3.56314 15.3738C3.79055 15.0528 4.04921 14.7175 4.3402 14.3817C5.76182 12.7414 8.0029 11.041 11.1667 11.041C11.5119 11.041 11.7917 11.3209 11.7917 11.666V14.7994L17.77 9.15323L11.7917 3.17492V6.24937C11.7917 6.59455 11.5119 6.87437 11.1667 6.87437C8.22103 6.87437 6.35256 7.93834 5.18243 9.76374C4.28613 11.162 3.76904 13.0536 3.56314 15.3738Z" fill="#27A376"/>
</svg>
